# xmcd
#
# Track frame offsets:
#	150
#	13265
#	26964
#	39255
#	56449
#	76289
#	88593
#	105126
#	122178
#	135211
#	151233
#	163463
#	181587
#	197110
#	217990
#	232115
#	246721
#
# Disc length: 3489 seconds
#
# Revision: 1
# Processed by: cddbd v1.5.2PL0 Copyright (c) Steve Scherf et al.
# Submitted via: audiograbber 1.83.01
#
DISCID=de0d9f11
DTITLE=Big Daddy "O" - Deranged Covers
DYEAR=1900
DGENRE=
TTITLE0=Crossroads
TTITLE1=Built For Comfort
TTITLE2=Give it Your Best
TTITLE3=Stormy Weather
TTITLE4=Confessing the Blues
TTITLE5=Louisiana Blues
TTITLE6=St. Louis Blues
TTITLE7=Just Dropped In
TTITLE8=My Wife and Her Gay Lover
TTITLE9=Autumn Leaves
TTITLE10=Key to the Highway
TTITLE11=Copperline
TTITLE12=Floating Bridge
TTITLE13=Feels Like Rain
TTITLE14=Now's Not the Time
TTITLE15=Insurance
TTITLE16=A Song For You
EXTD=
EXTT0=
EXTT1=
EXTT2=
EXTT3=
EXTT4=
EXTT5=
EXTT6=
EXTT7=
EXTT8=
EXTT9=
EXTT10=
EXTT11=
EXTT12=
EXTT13=
EXTT14=
EXTT15=
EXTT16=
PLAYORDER=
